# xmcd
#
# Track frame offsets:
#	151
#	22870
#	42333
#	57060
#	72178
#	87185
#	102551
#	116735
#	133208
#	150576
#	162747
#	181297
#
# Disc length: 2654 seconds
#
# Revision: 2
# Processed by: cddbd v1.5.1PL0 Copyright (c) Steve Scherf et al.
# Submitted via: dBpowerAMP V4.0
#
DISCID=a00a5c0c
DTITLE=Peter Sarstedt - The Collection Vol. 1
DYEAR=2001
DGENRE=Folk
TTITLE0=Where Do You Go To My Lovely
TTITLE1=Other People's Lives
TTITLE2=The Far Pavilions
TTITLE3=Tall Tree
TTITLE4=Don't Bury Your Love
TTITLE5=Hollywood Sign
TTITLE6=Mulberry Dawn
TTITLE7=Beirut
TTITLE8=Europa
TTITLE9=Boulevard
TTITLE10=Take Off Your Clothes
TTITLE11=English Girls
EXTD=
EXTT0=
EXTT1=
EXTT2=
EXTT3=
EXTT4=
EXTT5=
EXTT6=
EXTT7=
EXTT8=
EXTT9=
EXTT10=
EXTT11=
PLAYORDER=
